<svg width="341" height="341" viewBox="0 0 341 341" fill="none" xmlns="http://www.w3.org/2000/svg">
<g clip-path="url(#clip0_2_643)">
<path d="M4.50003 173.79C4.50003 83.0797 77.4926 9.5 167.589 9.5C257.685 9.5 330.677 83.0797 330.677 173.79C330.677 264.499 257.685 338.079 167.589 338.079C77.4926 338.079 4.50003 264.499 4.50003 173.79Z" fill="url(#paint0_linear_2_643)" stroke="white" stroke-width="7"/>
<path d="M167.589 332.767C254.734 332.767 325.379 261.59 325.379 173.789C325.379 85.9886 254.734 14.812 167.589 14.812C80.4436 14.812 9.79858 85.9886 9.79858 173.789C9.79858 261.59 80.4436 332.767 167.589 332.767Z" fill="url(#paint1_linear_2_643)"/>
<path d="M167.589 330.45C253.349 330.45 322.872 260.404 322.872 173.998C322.872 87.5923 253.349 17.5464 167.589 17.5464C81.8281 17.5464 12.3054 87.5923 12.3054 173.998C12.3054 260.404 81.8281 330.45 167.589 330.45Z" fill="black"/>
<path d="M167.588 51.5726C136.541 51.5726 105.494 63.5046 81.8111 87.3672C34.4423 135.092 34.4423 212.487 81.8111 260.213C129.18 307.938 205.997 307.938 253.366 260.213C300.734 212.487 300.734 135.092 253.366 87.3672C229.681 63.5046 198.634 51.5726 167.588 51.5726Z" fill="#A1A1A1"/>
<path d="M167.588 52.7806C173.739 52.7806 179.887 53.262 185.979 54.2082L184.615 62.8898C173.335 61.1417 161.842 61.1417 150.562 62.8898L149.198 54.2082C155.29 53.2621 161.438 52.7806 167.588 52.7806Z" fill="#D40000"/>
<path d="M148.402 54.3333L149.767 63.0157C138.607 64.8282 127.67 68.3545 117.37 73.5961L113.411 65.7666C124.534 60.1002 136.347 56.2888 148.402 54.3337L148.402 54.3333Z" fill="#00D400"/>
<path d="M186.775 54.3333C198.829 56.2886 210.643 60.0998 221.767 65.7662L217.807 73.5965C207.507 68.3549 196.57 64.8281 185.41 63.0153L186.775 54.3333Z" fill="#00D400"/>
<path d="M167.588 62.7813C173.219 62.7813 178.85 63.2208 184.428 64.0854L178.824 99.7271C171.38 98.5872 163.798 98.5873 156.353 99.7271L150.75 64.0854C156.328 63.2208 161.957 62.7813 167.588 62.7813Z" fill="black"/>
<path d="M149.955 64.2083L155.557 99.8492C148.195 101.058 140.98 103.386 134.179 106.831L117.918 74.6764C128.103 69.4916 138.919 66.0017 149.955 64.2083Z" fill="#E9DDAF"/>
<path d="M185.222 64.2083C196.258 66.002 207.074 69.4912 217.26 74.676L200.998 106.831C194.198 103.386 186.982 101.058 179.62 99.8488L185.222 64.2079V64.2083Z" fill="#E9DDAF"/>
<path d="M112.695 66.1339L116.655 73.9641C106.746 79.0987 97.4417 85.8264 89.1182 94.1532L82.9542 87.9428C91.9435 78.945 101.992 71.6778 112.695 66.1339Z" fill="#D40000"/>
<path d="M222.484 66.1339C233.187 71.6774 243.237 78.9442 252.226 87.942L246.062 94.1524C237.739 85.8255 228.434 79.0979 218.526 73.9633L222.484 66.1339Z" fill="#D40000"/>
<path d="M117.201 75.0441L133.463 107.2C126.928 110.6 120.791 115.041 115.292 120.523L89.9709 95.0118C98.2034 86.7766 107.403 80.1231 117.201 75.0441Z" fill="black"/>
<path d="M217.978 75.044C227.775 80.123 236.976 86.7765 245.208 95.0114L219.887 120.523C214.387 115.04 208.25 110.599 201.717 107.199L217.978 75.0444V75.044Z" fill="black"/>
<path d="M82.3818 88.5148L88.5458 94.7253C80.2811 103.111 73.6037 112.486 68.5075 122.469L60.7365 118.48C66.2387 107.697 73.4512 97.5718 82.3818 88.5148Z" fill="#00D400"/>
<path d="M252.794 88.5148C261.724 97.5718 268.937 107.697 274.439 118.48L266.668 122.47C261.572 112.486 254.895 103.112 246.63 94.7255L252.794 88.5148Z" fill="#00D400"/>
<path d="M89.4028 95.5847L114.724 121.096C109.282 126.637 104.874 132.821 101.499 139.405L69.5842 123.02C74.6253 113.149 81.2294 103.879 89.4028 95.5847Z" fill="#E9DDAF"/>
<path d="M245.777 95.5847C253.95 103.879 260.554 113.149 265.595 123.02L233.68 139.404C230.305 132.82 225.897 126.637 220.455 121.096L245.777 95.5847H245.777Z" fill="#E9DDAF"/>
<path d="M167.588 100.076C171.283 100.076 174.976 100.361 178.637 100.922L177.397 108.803C170.898 107.813 164.279 107.813 157.779 108.803L156.54 100.922C160.2 100.361 163.894 100.076 167.588 100.076Z" fill="#D40000"/>
<path d="M155.745 101.045L156.984 108.926C150.557 109.987 144.259 112.019 138.32 115.022L134.726 107.913C141.413 104.525 148.507 102.235 155.745 101.045Z" fill="#00D400"/>
<path d="M179.432 101.045C186.67 102.235 193.764 104.525 200.451 107.913L196.857 115.021C190.918 112.018 184.619 109.987 178.192 108.926L179.432 101.045Z" fill="#00D400"/>
<path d="M134.009 108.281L137.603 115.389C131.901 118.362 126.544 122.24 121.74 127.021L116.144 121.383C121.552 115.993 127.586 111.626 134.009 108.281Z" fill="#D40000"/>
<path d="M201.169 108.281C207.591 111.626 213.625 115.993 219.033 121.383L213.437 127.02C208.634 122.239 203.277 118.361 197.574 115.388L201.169 108.281Z" fill="#D40000"/>
<path d="M167.589 109.262C170.806 109.262 174.022 109.509 177.209 109.994L170.431 153.115C168.545 152.853 166.631 152.853 164.746 153.115L157.967 109.994C161.155 109.509 164.372 109.262 167.589 109.262Z" fill="black"/>
<path d="M157.172 110.122L163.952 153.246C162.093 153.578 160.272 154.166 158.543 155.011L138.868 116.104C144.693 113.158 150.87 111.164 157.172 110.123L157.172 110.122Z" fill="#E9DDAF"/>
<path d="M178.005 110.122C184.307 111.163 190.485 113.157 196.31 116.103L176.634 155.01C174.905 154.165 173.084 153.577 171.226 153.245L178.005 110.121L178.005 110.122Z" fill="#E9DDAF"/>
<path d="M138.15 116.47L157.824 155.374C156.181 156.258 154.634 157.385 153.229 158.747L122.593 127.881C127.305 123.191 132.559 119.387 138.15 116.47L138.15 116.47Z" fill="black"/>
<path d="M197.028 116.47C202.619 119.387 207.872 123.191 212.584 127.88L181.948 158.747C180.543 157.385 178.996 156.258 177.353 155.373L197.027 116.469L197.028 116.47Z" fill="black"/>
<path d="M60.3731 119.202L68.145 123.192C62.9426 133.569 59.4421 144.588 57.6428 155.832L49.0252 154.457C50.9661 142.312 54.7487 130.409 60.3727 119.202L60.3731 119.202Z" fill="#D40000"/>
<path d="M274.806 119.202C280.43 130.409 284.213 142.311 286.154 154.457L277.536 155.832C275.737 144.587 272.236 133.568 267.034 123.192L274.806 119.202L274.806 119.202Z" fill="#D40000"/>
<path d="M219.604 121.959C224.954 127.408 229.289 133.486 232.608 139.957L225.555 143.579C222.604 137.834 218.755 132.436 214.009 127.596L219.604 121.959Z" fill="#00D400"/>
<path d="M115.576 121.959L121.171 127.596C116.425 132.436 112.576 137.834 109.625 143.579L102.57 139.957C105.89 133.486 110.226 127.407 115.576 121.959Z" fill="#00D400"/>
<path d="M69.2168 123.745L101.132 140.128C97.7127 146.981 95.4026 154.25 94.2024 161.668L58.8269 156.023C60.6072 144.904 64.0703 134.007 69.2164 123.745H69.2168Z" fill="black"/>
<path d="M265.963 123.745C271.109 134.007 274.572 144.904 276.352 156.023L240.977 161.668C239.776 154.25 237.466 146.981 234.047 140.128L265.963 123.745Z" fill="black"/>
<path d="M213.154 128.455C217.809 133.203 221.584 138.496 224.48 144.129L185.867 163.951C184.989 162.295 183.87 160.737 182.518 159.321L213.154 128.454L213.154 128.455Z" fill="#E9DDAF"/>
<path d="M122.025 128.456L152.661 159.322C151.308 160.737 150.19 162.296 149.312 163.952L110.7 144.129C113.596 138.496 117.371 133.203 122.025 128.456Z" fill="#E9DDAF"/>
<path d="M232.974 140.679C236.337 147.416 238.61 154.564 239.792 161.856L231.969 163.105C230.917 156.63 228.9 150.284 225.92 144.3L232.974 140.679Z" fill="#D40000"/>
<path d="M102.206 140.679L109.261 144.301C106.281 150.284 104.264 156.631 103.211 163.106L95.3886 161.857C96.57 154.565 98.8426 147.417 102.206 140.679Z" fill="#D40000"/>
<path d="M224.846 144.851C227.77 150.72 229.749 156.944 230.783 163.294L187.981 170.124C187.652 168.252 187.067 166.417 186.229 164.675L224.845 144.851H224.846Z" fill="black"/>
<path d="M110.333 144.852L148.949 164.675C148.11 166.417 147.527 168.252 147.197 170.124L104.395 163.294C105.429 156.944 107.408 150.721 110.332 144.852L110.333 144.852Z" fill="black"/>
<path d="M167.588 154.125C172.581 154.125 177.574 156.046 181.387 159.887C189.013 167.571 189.013 180.008 181.387 187.692C173.761 195.375 161.416 195.375 153.79 187.692C146.164 180.008 146.164 167.571 153.79 159.887C157.603 156.046 162.596 154.125 167.588 154.125Z" fill="#00D400"/>
<path d="M48.8981 155.26L57.5156 156.635C55.7807 167.999 55.7805 179.579 57.5156 190.944L48.8981 192.319C47.0201 180.044 47.02 167.535 48.8981 155.26Z" fill="#00D400"/>
<path d="M286.277 155.26C288.155 167.535 288.155 180.044 286.277 192.319L277.66 190.944C279.396 179.579 279.395 168 277.66 156.635L286.277 155.26Z" fill="#00D400"/>
<path d="M58.7034 156.824L94.0781 162.47C92.9469 169.97 92.9468 177.609 94.0781 185.11L58.7026 190.755C56.9863 179.516 56.9871 168.064 58.7034 156.825V156.824Z" fill="#E9DDAF"/>
<path d="M276.476 156.824C278.192 168.064 278.193 179.516 276.477 190.755L241.101 185.11C242.232 177.609 242.232 169.97 241.101 162.469L276.476 156.824V156.824Z" fill="#E9DDAF"/>
<path d="M95.2651 162.658L103.087 163.907C102.104 170.455 102.105 177.124 103.087 183.672L95.2651 184.921C94.1524 177.545 94.1525 170.033 95.2651 162.658Z" fill="#00D400"/>
<path d="M239.914 162.658C241.027 170.033 241.027 177.545 239.914 184.921L232.092 183.672C233.075 177.123 233.075 170.455 232.092 163.906L239.914 162.658Z" fill="#00D400"/>
<path d="M104.27 164.096L147.068 170.925C146.808 172.825 146.808 174.754 147.068 176.653L104.27 183.483C103.306 177.06 103.306 170.519 104.27 164.096Z" fill="#E9DDAF"/>
<path d="M230.906 164.096C231.869 170.518 231.869 177.06 230.906 183.482L188.108 176.653C188.367 174.753 188.367 172.825 188.108 170.925L230.906 164.096Z" fill="#E9DDAF"/>
<path d="M167.588 165.184C165.4 165.184 163.212 166.024 161.546 167.702C158.214 171.059 158.215 176.52 161.547 179.877C164.879 183.234 170.299 183.235 173.63 179.878C176.962 176.521 176.962 171.059 173.63 167.702C171.964 166.024 169.776 165.184 167.588 165.184L167.588 165.184Z" fill="#A1A1A1"/>
<path d="M167.588 166.393C169.465 166.393 171.342 167.116 172.777 168.562C175.648 171.454 175.648 176.126 172.777 179.018C169.906 181.91 165.271 181.909 162.4 179.017C159.529 176.125 159.529 171.454 162.399 168.562C163.835 167.116 165.712 166.393 167.588 166.393Z" fill="#D40000"/>
<path d="M147.197 177.454C147.526 179.327 148.11 181.161 148.948 182.904L110.333 202.727C107.408 196.858 105.429 190.634 104.395 184.284L147.198 177.454L147.197 177.454Z" fill="black"/>
<path d="M187.981 177.454L230.783 184.284C229.749 190.634 227.77 196.858 224.846 202.727L186.23 182.903C187.069 181.161 187.652 179.327 187.982 177.455L187.981 177.454Z" fill="black"/>
<path d="M149.311 183.627C150.189 185.283 151.307 186.842 152.659 188.257L122.023 219.123C117.369 214.376 113.594 209.083 110.698 203.45L149.311 183.628L149.311 183.627Z" fill="#E9DDAF"/>
<path d="M185.866 183.627L224.48 203.449C221.584 209.083 217.808 214.375 213.154 219.123L182.518 188.257C183.87 186.841 184.989 185.283 185.867 183.627L185.866 183.627Z" fill="#E9DDAF"/>
<path d="M103.211 184.473C104.264 190.948 106.281 197.294 109.262 203.278L102.207 206.9C98.844 200.162 96.5706 193.014 95.3893 185.722L103.211 184.473Z" fill="#D40000"/>
<path d="M231.968 184.473L239.79 185.721C238.608 193.014 236.336 200.162 232.973 206.899L225.918 203.278C228.898 197.294 230.915 190.948 231.968 184.473Z" fill="#D40000"/>
<path d="M94.2028 185.91C95.4031 193.328 97.7128 200.598 101.133 207.451L69.218 223.834C64.072 213.572 60.6081 202.675 58.8277 191.555L94.2033 185.91H94.2028Z" fill="black"/>
<path d="M240.977 185.91L276.352 191.555C274.572 202.675 271.109 213.572 265.963 223.834L234.047 207.451C237.467 200.598 239.776 193.328 240.977 185.91Z" fill="black"/>
<path d="M153.228 188.831C154.633 190.194 156.181 191.32 157.824 192.204L138.15 231.107C132.559 228.19 127.305 224.387 122.593 219.697L153.228 188.831L153.228 188.831Z" fill="black"/>
<path d="M181.949 188.831L212.584 219.697C207.872 224.387 202.619 228.191 197.028 231.108L177.354 192.204C178.997 191.32 180.544 190.193 181.949 188.831L181.949 188.831Z" fill="black"/>
<path d="M57.6412 191.745C59.4403 202.989 62.9409 214.009 68.1433 224.386L60.3715 228.375C54.7471 217.168 50.9646 205.265 49.024 193.12L57.6412 191.745Z" fill="#D40000"/>
<path d="M277.534 191.745L286.152 193.12C284.211 205.265 280.428 217.167 274.804 228.375L267.032 224.386C272.235 214.009 275.735 202.989 277.535 191.745L277.534 191.745Z" fill="#D40000"/>
<path d="M158.542 192.57C160.272 193.415 162.093 194.003 163.951 194.335L157.172 237.459C150.869 236.418 144.691 234.423 138.866 231.477L158.542 192.571L158.542 192.57Z" fill="#E9DDAF"/>
<path d="M176.634 192.57L196.31 231.477C190.485 234.423 184.307 236.417 178.005 237.458L171.226 194.334C173.084 194.002 174.905 193.414 176.634 192.569L176.634 192.57Z" fill="#E9DDAF"/>
<path d="M164.746 194.463C166.631 194.725 168.545 194.725 170.431 194.463L177.21 237.584C170.834 238.555 164.343 238.555 157.967 237.584L164.746 194.463Z" fill="black"/>
<path d="M109.625 203.999C112.576 209.745 116.424 215.142 121.17 219.983L115.575 225.62C110.224 220.171 105.89 214.092 102.571 207.621L109.625 203.999Z" fill="#00D400"/>
<path d="M225.55 203.999L232.606 207.621C229.286 214.092 224.951 220.171 219.601 225.62L214.005 219.982C218.751 215.142 222.6 209.745 225.55 203.999Z" fill="#00D400"/>
<path d="M101.497 208.175C104.873 214.758 109.28 220.941 114.722 226.482L89.4008 251.994C81.2274 243.7 74.6236 234.43 69.5826 224.558L101.497 208.175Z" fill="#E9DDAF"/>
<path d="M233.682 208.175L265.597 224.558C260.556 234.43 253.952 243.7 245.778 251.994L220.457 226.482C225.898 220.941 230.307 214.758 233.682 208.175Z" fill="#E9DDAF"/>
<path d="M121.74 220.555C126.544 225.337 131.901 229.214 137.604 232.187L134.009 239.294C127.587 235.949 121.553 231.582 116.145 226.192L121.74 220.555Z" fill="#D40000"/>
<path d="M213.436 220.555L219.031 226.193C213.623 231.584 207.59 235.951 201.167 239.296L197.572 232.187C203.274 229.214 208.632 225.337 213.436 220.555Z" fill="#D40000"/>
<path d="M68.5087 225.107C73.6049 235.091 80.2819 244.466 88.547 252.852L82.383 259.062C73.4524 250.005 66.2395 239.88 60.7369 229.097L68.5087 225.107Z" fill="#00D400"/>
<path d="M266.667 225.107L274.438 229.097C268.936 239.88 261.723 250.006 252.792 259.063L246.628 252.852C254.893 244.466 261.57 235.091 266.667 225.107Z" fill="#00D400"/>
<path d="M115.29 227.053C120.79 232.536 126.927 236.977 133.461 240.378L117.2 272.532C107.402 267.453 98.2018 260.8 89.9693 252.565L115.29 227.053Z" fill="black"/>
<path d="M219.885 227.053L245.207 252.565C236.975 260.8 227.774 267.454 217.977 272.533L201.714 240.378C208.248 236.977 214.386 232.536 219.885 227.053V227.053Z" fill="black"/>
<path d="M138.321 232.558C144.259 235.561 150.558 237.593 156.985 238.654L155.745 246.535C148.507 245.344 141.413 243.054 134.726 239.666L138.321 232.558Z" fill="#00D400"/>
<path d="M196.857 232.558L200.452 239.666C193.765 243.055 186.67 245.345 179.432 246.535L178.193 238.654C184.619 237.593 190.918 235.561 196.857 232.558Z" fill="#00D400"/>
<path d="M157.78 238.777C164.279 239.767 170.898 239.767 177.397 238.777L178.637 246.658C171.316 247.779 163.861 247.779 156.54 246.658L157.78 238.777Z" fill="#D40000"/>
<path d="M134.179 240.747C140.98 244.192 148.196 246.519 155.558 247.729L149.955 283.37C138.919 281.577 128.103 278.087 117.918 272.902L134.179 240.747V240.747Z" fill="#E9DDAF"/>
<path d="M200.999 240.747L217.261 272.902C207.075 278.087 196.258 281.577 185.222 283.37L179.619 247.728C186.981 246.519 194.197 244.192 200.999 240.747Z" fill="#E9DDAF"/>
<path d="M156.353 247.853C163.798 248.993 171.38 248.993 178.825 247.853L184.428 283.495C173.272 285.224 161.906 285.223 150.75 283.494L156.353 247.853Z" fill="black"/>
<path d="M89.1171 253.427C97.4405 261.754 106.745 268.481 116.654 273.615L112.694 281.446C101.991 275.902 91.9421 268.635 82.9528 259.637L89.1171 253.427Z" fill="#D40000"/>
<path d="M246.062 253.427L252.226 259.637C243.237 268.635 233.187 275.902 222.485 281.446L218.525 273.616C228.434 268.482 237.739 261.754 246.062 253.427Z" fill="#D40000"/>
<path d="M117.37 273.984C127.669 279.225 138.606 282.753 149.767 284.566L148.402 293.248C136.348 291.293 124.534 287.482 113.41 281.815L117.37 273.984Z" fill="#00D400"/>
<path d="M217.805 273.984L221.765 281.814C210.641 287.481 198.827 291.292 186.773 293.247L185.408 284.565C196.568 282.752 207.506 279.225 217.805 273.983L217.805 273.984Z" fill="#00D400"/>
<path d="M150.562 284.69C161.842 286.438 173.335 286.438 184.615 284.69L185.98 293.372C173.796 295.265 161.381 295.265 149.197 293.372L150.562 284.69Z" fill="#D40000"/>
</g>
<defs>
<linearGradient id="paint0_linear_2_643" x1="167.589" y1="334.579" x2="167.589" y2="13.0023" gradientUnits="userSpaceOnUse">
<stop stop-color="#B4B4B4"/>
<stop offset="0.2034" stop-color="#D2D2D2"/>
<stop offset="0.49577" stop-color="#E8E8E8"/>
<stop offset="0.71327" stop-color="#D2D2D2"/>
<stop offset="1" stop-color="#B4B4B4"/>
</linearGradient>
<linearGradient id="paint1_linear_2_643" x1="9.79766" y1="173.789" x2="325.378" y2="173.789" gradientUnits="userSpaceOnUse">
<stop stop-color="#B4B4B4"/>
<stop offset="0.2034" stop-color="#D2D2D2"/>
<stop offset="0.49577" stop-color="#E8E8E8"/>
<stop offset="0.71327" stop-color="#D2D2D2"/>
<stop offset="1" stop-color="#B4B4B4"/>
</linearGradient>
<clipPath id="clip0_2_643">
<rect width="341" height="341" fill="white"/>
</clipPath>
</defs>
</svg>
